<?xml version="1.0" encoding="UTF-8"?>
<svg xmlns="http://www.w3.org/2000/svg" width="1280" height="720" viewBox="0 0 1280 720" role="img" aria-label="AIはソフトウェアエンジニアの仕事を奪う？論争に終止符を打ちたい：タイトルスライド用ヒーロー画像">
  <defs>
    <linearGradient id="bg" x1="0" y1="0" x2="1" y2="1">
      <stop offset="0" stop-color="#071028"/>
      <stop offset="0.55" stop-color="#071b3a"/>
      <stop offset="1" stop-color="#0a2a2a"/>
    </linearGradient>
    <radialGradient id="glow" cx="70%" cy="38%" r="55%">
      <stop offset="0" stop-color="#35d0ff" stop-opacity="0.22"/>
      <stop offset="0.6" stop-color="#35d0ff" stop-opacity="0.06"/>
      <stop offset="1" stop-color="#35d0ff" stop-opacity="0"/>
    </radialGradient>
    <pattern id="dots" width="22" height="22" patternUnits="userSpaceOnUse">
      <circle cx="2" cy="2" r="1.2" fill="#cfe8ff" opacity="0.12"/>
    </pattern>
    <linearGradient id="accent" x1="0" y1="0" x2="1" y2="0">
      <stop offset="0" stop-color="#f4a261"/>
      <stop offset="1" stop-color="#ffd166"/>
    </linearGradient>
    <filter id="softShadow" x="-20%" y="-20%" width="140%" height="140%">
      <feDropShadow dx="0" dy="10" stdDeviation="18" flood-color="#000000" flood-opacity="0.45"/>
    </filter>
    <filter id="softGlow" x="-30%" y="-30%" width="160%" height="160%">
      <feGaussianBlur stdDeviation="6" result="b"/>
      <feColorMatrix in="b" type="matrix"
        values="1 0 0 0 0
                0 1 0 0 0
                0 0 1 0 0
                0 0 0 0.6 0" result="g"/>
      <feMerge>
        <feMergeNode in="g"/>
        <feMergeNode in="SourceGraphic"/>
      </feMerge>
    </filter>
  </defs>

  <!-- Background -->
  <rect width="1280" height="720" fill="url(#bg)"/>
  <rect width="1280" height="720" fill="url(#glow)"/>
  <rect width="1280" height="720" fill="url(#dots)"/>

  <!-- Subtle diagonal band -->
  <path d="M-40 610 L520 140 L1320 140 L760 610 Z" fill="#0b2b4f" opacity="0.28"/>
  <path d="M-80 690 L480 220 L1320 220 L760 690 Z" fill="#0b2b4f" opacity="0.14"/>

  <!-- Big faded 'AI' -->
  <g opacity="0.10" filter="url(#softGlow)">
    <text x="760" y="310"
      font-family="Inter, ui-sans-serif, system-ui, -apple-system, BlinkMacSystemFont, 'Hiragino Sans', 'Noto Sans JP', 'Yu Gothic', Meiryo, sans-serif"
      font-size="220" font-weight="800" fill="#b7e9ff" text-anchor="middle" letter-spacing="6">AI</text>
  </g>

  <!-- Chip icon -->
  <g transform="translate(880 240)" filter="url(#softShadow)">
    <rect x="0" y="0" width="260" height="260" rx="28" fill="#0a1b33" stroke="#48d7ff" stroke-opacity="0.55" stroke-width="2"/>
    <rect x="46" y="46" width="168" height="168" rx="18" fill="#071325" stroke="#48d7ff" stroke-opacity="0.35" stroke-width="2"/>
    <!-- Pins -->
    <g opacity="0.55" fill="#48d7ff">
      <rect x="-18" y="40" width="18" height="10" rx="4"/>
      <rect x="-18" y="80" width="18" height="10" rx="4"/>
      <rect x="-18" y="120" width="18" height="10" rx="4"/>
      <rect x="-18" y="160" width="18" height="10" rx="4"/>
      <rect x="-18" y="200" width="18" height="10" rx="4"/>

      <rect x="260" y="40" width="18" height="10" rx="4"/>
      <rect x="260" y="80" width="18" height="10" rx="4"/>
      <rect x="260" y="120" width="18" height="10" rx="4"/>
      <rect x="260" y="160" width="18" height="10" rx="4"/>
      <rect x="260" y="200" width="18" height="10" rx="4"/>

      <rect x="40" y="-18" width="10" height="18" rx="4"/>
      <rect x="80" y="-18" width="10" height="18" rx="4"/>
      <rect x="120" y="-18" width="10" height="18" rx="4"/>
      <rect x="160" y="-18" width="10" height="18" rx="4"/>
      <rect x="200" y="-18" width="10" height="18" rx="4"/>

      <rect x="40" y="260" width="10" height="18" rx="4"/>
      <rect x="80" y="260" width="10" height="18" rx="4"/>
      <rect x="120" y="260" width="10" height="18" rx="4"/>
      <rect x="160" y="260" width="10" height="18" rx="4"/>
      <rect x="200" y="260" width="10" height="18" rx="4"/>
    </g>

    <!-- Circuit lines -->
    <g stroke="#48d7ff" stroke-opacity="0.32" stroke-width="2" fill="none">
      <path d="M60 90 H128 V60"/>
      <path d="M200 170 H150 V210"/>
      <path d="M90 200 H60 V150"/>
      <path d="M170 70 H210 V110"/>
      <circle cx="128" cy="60" r="4" fill="#48d7ff" stroke="none" opacity="0.75"/>
      <circle cx="150" cy="210" r="4" fill="#48d7ff" stroke="none" opacity="0.75"/>
      <circle cx="60" cy="150" r="4" fill="#48d7ff" stroke="none" opacity="0.75"/>
      <circle cx="210" cy="110" r="4" fill="#48d7ff" stroke="none" opacity="0.75"/>
    </g>
  </g>

  <!-- Braces + cursor motif -->
  <g transform="translate(970 570)" opacity="0.85">
    <text x="0" y="0"
      font-family="ui-monospace, SFMono-Regular, Menlo, Monaco, Consolas, 'Liberation Mono', 'Courier New', monospace"
      font-size="64" font-weight="700" fill="#d7f7ff">{ }</text>
    <rect x="130" y="-48" width="10" height="64" fill="url(#accent)" opacity="0.95"/>
  </g>

  <!-- Title block -->
  <g transform="translate(88 140)" filter="url(#softShadow)">
    <rect x="0" y="0" width="740" height="360" rx="26" fill="#071325" opacity="0.68" stroke="#cfe8ff" stroke-opacity="0.12"/>
    <g transform="translate(36 52)">
      <text x="0" y="0"
        font-family="Inter, ui-sans-serif, system-ui, -apple-system, BlinkMacSystemFont, 'Hiragino Sans', 'Noto Sans JP', 'Yu Gothic', Meiryo, sans-serif"
        font-size="34" font-weight="700" fill="#cfe8ff" opacity="0.92">「AIはソフトウェアエンジニアの仕事を奪う」</text>
      <text x="0" y="56"
        font-family="Inter, ui-sans-serif, system-ui, -apple-system, BlinkMacSystemFont, 'Hiragino Sans', 'Noto Sans JP', 'Yu Gothic', Meiryo, sans-serif"
        font-size="48" font-weight="800" fill="#ffffff">その主張に、そろそろ</text>
      <text x="0" y="116"
        font-family="Inter, ui-sans-serif, system-ui, -apple-system, BlinkMacSystemFont, 'Hiragino Sans', 'Noto Sans JP', 'Yu Gothic', Meiryo, sans-serif"
        font-size="62" font-weight="900" fill="url(#accent)" letter-spacing="1">終止符</text>
      <text x="214" y="116"
        font-family="Inter, ui-sans-serif, system-ui, -apple-system, BlinkMacSystemFont, 'Hiragino Sans', 'Noto Sans JP', 'Yu Gothic', Meiryo, sans-serif"
        font-size="48" font-weight="800" fill="#ffffff">を打ちたい</text>

      <g transform="translate(0 156)">
        <rect x="0" y="0" width="668" height="1.5" fill="#cfe8ff" opacity="0.18"/>
      </g>

      <text x="0" y="214"
        font-family="ui-monospace, SFMono-Regular, Menlo, Monaco, Consolas, 'Liberation Mono', 'Courier New', monospace"
        font-size="22" font-weight="700" fill="#b7e9ff" opacity="0.9">macro vs micro / hype vs reality / SWE-Bench</text>
      <text x="0" y="252"
        font-family="Inter, ui-sans-serif, system-ui, -apple-system, BlinkMacSystemFont, 'Hiragino Sans', 'Noto Sans JP', 'Yu Gothic', Meiryo, sans-serif"
        font-size="22" font-weight="600" fill="#cfe8ff" opacity="0.8">不安を煽る言説から、現場の視野を取り戻す</text>

      <g transform="translate(0 288)">
        <rect x="0" y="0" width="220" height="34" rx="17" fill="#0b2b4f" opacity="0.85" stroke="#48d7ff" stroke-opacity="0.25"/>
        <text x="16" y="24"
          font-family="ui-monospace, SFMono-Regular, Menlo, Monaco, Consolas, 'Liberation Mono', 'Courier New', monospace"
          font-size="18" font-weight="700" fill="#d7f7ff" opacity="0.95">#yokohamanorth</text>
      </g>
    </g>
  </g>

  <!-- Footer tiny -->
  <g opacity="0.55">
    <text x="88" y="666"
      font-family="ui-monospace, SFMono-Regular, Menlo, Monaco, Consolas, 'Liberation Mono', 'Courier New', monospace"
      font-size="14" fill="#cfe8ff">AI × Software Engineering</text>
  </g>
</svg>


